<svg xmlns="http://www.w3.org/2000/svg" viewBox="0 0 40 40">
  <defs>
    <style>
      .cls-1 {
        fill: #fff;
      }

      .cls-2 {
        fill: #a8a8a8;
      }
    </style>
  </defs>
  <g id="グループ化_563" data-name="グループ化 563" transform="translate(-66 -64)">
    <g id="グループ化_259" data-name="グループ化 259" transform="translate(66 64)">
      <path id="パス_241" data-name="パス 241" class="cls-1" d="M20,40A20,20,0,1,0,0,20,20.011,20.011,0,0,0,20,40Z"/>
    </g>
    <path id="パス_242" data-name="パス 242" class="cls-2" d="M20,40A20,20,0,1,0,0,20,20.011,20.011,0,0,0,20,40Zm0-27.778a6.667,6.667,0,1,1-6.667,6.667A6.686,6.686,0,0,1,20,12.222ZM9.259,35.852c0-.074.074-.074.074-.148,2-4.815,6.148-8.148,10.889-8.148s8.815,3.333,10.889,8.074a19.526,19.526,0,0,1-11.037,3.481A19.027,19.027,0,0,1,9.259,35.852Z" transform="translate(66 64)"/>
  </g>
</svg>
